{
  "accessors": [
    {
      "bufferView": 0,
      "componentType": 5125,
      "count": 60,
      "type": "SCALAR"
    },
    {
      "bufferView": 1,
      "componentType": 5126,
      "count": 28,
      "max": [
        0.009558593513089048,
        -0.009788573969799444,
        0.009999999747378745
      ],
      "min": [
        -0.010024023188831263,
        -0.010988573942825652,
        -0.009999999747378752
      ],
      "type": "VEC3"
    },
    {
      "bufferView": 2,
      "componentType": 5126,
      "count": 28,
      "max": [
        1.0,
        1.0,
        1.0
      ],
      "min": [
        -1.0,
        -1.0,
        -1.0
      ],
      "type": "VEC3"
    },
    {
      "bufferView": 3,
      "componentType": 5126,
      "count": 28,
      "max": [
        0.945391596151791,
        1.0
      ],
      "min": [
        0.0,
        0.0
      ],
      "type": "VEC2"
    },
    {
      "bufferView": 4,
      "componentType": 5125,
      "count": 60,
      "type": "SCALAR"
    },
    {
      "bufferView": 5,
      "componentType": 5126,
      "count": 28,
      "max": [
        0.021093358847169646,
        0.0003204101494257705,
        0.009999999747378752
      ],
      "min": [
        -0.0005220703043441327,
        -0.021097558062050853,
        -0.009999999747378752
      ],
      "type": "VEC3"
    },
    {
      "bufferView": 6,
      "componentType": 5126,
      "count": 28,
      "max": [
        0.7105160300552004,
        0.7106161294965703,
        1.0
      ],
      "min": [
        -0.7106787773729133,
        -0.7106227448910294,
        -1.0
      ],
      "type": "VEC3"
    },
    {
      "bufferView": 7,
      "componentType": 5126,
      "count": 28,
      "max": [
        1.0,
        0.7103424808276688
      ],
      "min": [
        0.0,
        0.0
      ],
      "type": "VEC2"
    },
    {
      "bufferView": 8,
      "componentType": 5125,
      "count": 60,
      "type": "SCALAR"
    },
    {
      "bufferView": 9,
      "componentType": 5126,
      "count": 28,
      "max": [
        0.021095311969703823,
        0.010706738013391351,
        0.009999999747378745
      ],
      "min": [
        0.00985839818583957,
        -0.0005301757704729015,
        -0.009999999747378752
      ],
      "type": "VEC3"
    },
    {
      "bufferView": 10,
      "componentType": 5126,
      "count": 28,
      "max": [
        0.7071134283112941,
        0.7071881557768569,
        1.0
      ],
      "min": [
        -0.7071067811865475,
        -0.7071067811865475,
        -1.0
      ],
      "type": "VEC3"
    },
    {
      "bufferView": 11,
      "componentType": 5126,
      "count": 28,
      "max": [
        0.7222187424749511,
        1.0
      ],
      "min": [
        0.0,
        0.0
      ],
      "type": "VEC2"
    },
    {
      "bufferView": 12,
      "componentType": 5125,
      "count": 60,
      "type": "SCALAR"
    },
    {
      "bufferView": 13,
      "componentType": 5126,
      "count": 28,
      "max": [
        0.010340429429393519,
        0.0209225580725612,
        0.009999999747378752
      ],
      "min": [
        -0.021268163528335715,
        -0.0106862302061526,
        -0.009999999747378752
      ],
      "type": "VEC3"
    },
    {
      "bufferView": 14,
      "componentType": 5126,
      "count": 28,
      "max": [
        0.7071090261708921,
        0.7071067811865466,
        1.0
      ],
      "min": [
        -0.7071090261708921,
        -0.7071067811865466,
        -1.0
      ],
      "type": "VEC3"
    },
    {
      "bufferView": 15,
      "componentType": 5126,
      "count": 28,
      "max": [
        1.0,
        0.8239843269683655
      ],
      "min": [
        0.0,
        0.0
      ],
      "type": "VEC2"
    },
    {
      "bufferView": 16,
      "componentType": 5125,
      "count": 60,
      "type": "SCALAR"
    },
    {
      "bufferView": 17,
      "componentType": 5126,
      "count": 28,
      "max": [
        0.02088359323220998,
        0.020883495575962502,
        0.009999999747378745
      ],
      "min": [
        -0.021095311976861583,
        -0.021095409633109047,
        -0.009999999747378752
      ],
      "type": "VEC3"
    },
    {
      "bufferView": 18,
      "componentType": 5126,
      "count": 28,
      "max": [
        0.7071067811865475,
        0.7071067811865475,
        1.0
      ],
      "min": [
        -0.7071067811865475,
        -0.7071067811865475,
        -1.0
      ],
      "type": "VEC3"
    },
    {
      "bufferView": 19,
      "componentType": 5126,
      "count": 28,
      "max": [
        1.0,
        0.8239282761262731
      ],
      "min": [
        0.0,
        0.0
      ],
      "type": "VEC2"
    },
    {
      "bufferView": 20,
      "componentType": 5125,
      "count": 144,
      "type": "SCALAR"
    },
    {
      "bufferView": 21,
      "componentType": 5126,
      "count": 56,
      "max": [
        0.02127109321382223,
        0.021271190878799667,
        0.009999999747378752
      ],
      "min": [
        -0.02127109321382223,
        -0.02127119087879968,
        -0.009999999747378752
      ],
      "type": "VEC3"
    },
    {
      "bufferView": 22,
      "componentType": 5126,
      "count": 56,
      "max": [
        1.0,
        1.0,
        1.0
      ],
      "min": [
        -1.0,
        -1.0,
        -1.0
      ],
      "type": "VEC3"
    },
    {
      "bufferView": 23,
      "componentType": 5126,
      "count": 56,
      "max": [
        1.0,
        0.9899253767128532
      ],
      "min": [
        0.0,
        0.0
      ],
      "type": "VEC2"
    }
  ],
  "asset": {
    "generator": "Adobe Illustrator",
    "version": "2.0"
  },
  "bufferViews": [
    {
      "buffer": 0,
      "byteLength": 240,
      "target": 34963
    },
    {
      "buffer": 0,
      "byteLength": 336,
      "byteOffset": 240,
      "target": 34962
    },
    {
      "buffer": 0,
      "byteLength": 336,
      "byteOffset": 576,
      "target": 34962
    },
    {
      "buffer": 0,
      "byteLength": 224,
      "byteOffset": 912,
      "target": 34962
    },
    {
      "buffer": 0,
      "byteLength": 240,
      "byteOffset": 1136,
      "target": 34963
    },
    {
      "buffer": 0,
      "byteLength": 336,
      "byteOffset": 1376,
      "target": 34962
    },
    {
      "buffer": 0,
      "byteLength": 336,
      "byteOffset": 1712,
      "target": 34962
    },
    {
      "buffer": 0,
      "byteLength": 224,
      "byteOffset": 2048,
      "target": 34962
    },
    {
      "buffer": 0,
      "byteLength": 240,
      "byteOffset": 2272,
      "target": 34963
    },
    {
      "buffer": 0,
      "byteLength": 336,
      "byteOffset": 2512,
      "target": 34962
    },
    {
      "buffer": 0,
      "byteLength": 336,
      "byteOffset": 2848,
      "target": 34962
    },
    {
      "buffer": 0,
      "byteLength": 224,
      "byteOffset": 3184,
      "target": 34962
    },
    {
      "buffer": 0,
      "byteLength": 240,
      "byteOffset": 3408,
      "target": 34963
    },
    {
      "buffer": 0,
      "byteLength": 336,
      "byteOffset": 3648,
      "target": 34962
    },
    {
      "buffer": 0,
      "byteLength": 336,
      "byteOffset": 3984,
      "target": 34962
    },
    {
      "buffer": 0,
      "byteLength": 224,
      "byteOffset": 4320,
      "target": 34962
    },
    {
      "buffer": 0,
      "byteLength": 240,
      "byteOffset": 4544,
      "target": 34963
    },
    {
      "buffer": 0,
      "byteLength": 336,
      "byteOffset": 4784,
      "target": 34962
    },
    {
      "buffer": 0,
      "byteLength": 336,
      "byteOffset": 5120,
      "target": 34962
    },
    {
      "buffer": 0,
      "byteLength": 224,
      "byteOffset": 5456,
      "target": 34962
    },
    {
      "buffer": 0,
      "byteLength": 576,
      "byteOffset": 5680,
      "target": 34963
    },
    {
      "buffer": 0,
      "byteLength": 672,
      "byteOffset": 6256,
      "target": 34962
    },
    {
      "buffer": 0,
      "byteLength": 672,
      "byteOffset": 6928,
      "target": 34962
    },
    {
      "buffer": 0,
      "byteLength": 448,
      "byteOffset": 7600,
      "target": 34962
    }
  ],
  "buffers": [
    {
      "byteLength": 8048,
      "uri": "data:application/octet-stream;base64,"
    }
  ],
  "materials": [
    {
      "doubleSided": true,
      "pbrMetallicRoughness": {
        "baseColorFactor": [
          0.88671875,
          0.0234375,
          0.0742187574505806,
          1.0
        ],
        "metallicFactor": 0.0,
        "roughnessFactor": 0.4000000059604645
      }
    },
    {
      "doubleSided": true,
      "pbrMetallicRoughness": {
        "baseColorFactor": [
          0.88671875,
          0.0234375,
          0.0742187574505806,
          1.0
        ],
        "metallicFactor": 0.0,
        "roughnessFactor": 0.4000000059604645
      }
    },
    {
      "doubleSided": true,
      "pbrMetallicRoughness": {
        "baseColorFactor": [
          0.88671875,
          0.0234375,
          0.0742187574505806,
          1.0
        ],
        "metallicFactor": 0.0,
        "roughnessFactor": 0.4000000059604645
      }
    },
    {
      "doubleSided": true,
      "pbrMetallicRoughness": {
        "baseColorFactor": [
          0.88671875,
          0.0234375,
          0.0742187574505806,
          1.0
        ],
        "metallicFactor": 0.0,
        "roughnessFactor": 0.4000000059604645
      }
    },
    {
      "doubleSided": true,
      "pbrMetallicRoughness": {
        "baseColorFactor": [
          0.88671875,
          0.0234375,
          0.0742187574505806,
          1.0
        ],
        "metallicFactor": 0.0,
        "roughnessFactor": 0.4000000059604645
      }
    },
    {
      "doubleSided": true,
      "pbrMetallicRoughness": {
        "baseColorFactor": [
          0.88671875,
          0.0234375,
          0.0742187574505806,
          1.0
        ],
        "metallicFactor": 0.0,
        "roughnessFactor": 0.4000000059604645
      }
    }
  ],
  "meshes": [
    {
      "primitives": [
        {
          "attributes": {
            "NORMAL": 2,
            "POSITION": 1,
            "TEXCOORD_0": 3
          },
          "indices": 0,
          "material": 0,
          "mode": 4
        }
      ]
    },
    {
      "primitives": [
        {
          "attributes": {
            "NORMAL": 6,
            "POSITION": 5,
            "TEXCOORD_0": 7
          },
          "indices": 4,
          "material": 1,
          "mode": 4
        }
      ]
    },
    {
      "primitives": [
        {
          "attributes": {
            "NORMAL": 10,
            "POSITION": 9,
            "TEXCOORD_0": 11
          },
          "indices": 8,
          "material": 2,
          "mode": 4
        }
      ]
    },
    {
      "primitives": [
        {
          "attributes": {
            "NORMAL": 14,
            "POSITION": 13,
            "TEXCOORD_0": 15
          },
          "indices": 12,
          "material": 3,
          "mode": 4
        }
      ]
    },
    {
      "primitives": [
        {
          "attributes": {
            "NORMAL": 18,
            "POSITION": 17,
            "TEXCOORD_0": 19
          },
          "indices": 16,
          "material": 4,
          "mode": 4
        }
      ]
    },
    {
      "primitives": [
        {
          "attributes": {
            "NORMAL": 22,
            "POSITION": 21,
            "TEXCOORD_0": 23
          },
          "indices": 20,
          "material": 5,
          "mode": 4
        }
      ]
    }
  ],
  "nodes": [
    {
      "mesh": 0
    },
    {
      "mesh": 1
    },
    {
      "mesh": 2
    },
    {
      "mesh": 3
    },
    {
      "mesh": 4
    },
    {
      "mesh": 5
    }
  ],
  "scenes": [
    {
      "nodes": [
        0,
        1,
        2,
        3,
        4,
        5
      ]
    }
  ]
}
