{
  "accessors": [
    {
      "bufferView": 0,
      "componentType": 5125,
      "count": 198,
      "type": "SCALAR"
    },
    {
      "bufferView": 1,
      "componentType": 5126,
      "count": 71,
      "max": [
        0.04770390503321742,
        0.04770419803585457,
        0.002999999924213626
      ],
      "min": [
        -0.04770390503321742,
        -0.04770419803585457,
        -0.002999999924213626
      ],
      "type": "VEC3"
    },
    {
      "bufferView": 2,
      "componentType": 5126,
      "count": 71,
      "max": [
        0.8895387737157037,
        0.8895364914757613,
        1.0
      ],
      "min": [
        -0.8895398903552263,
        -0.8895376243522657,
        -1.0
      ],
      "type": "VEC3"
    },
    {
      "bufferView": 3,
      "componentType": 5126,
      "count": 71,
      "max": [
        0.8721885754940676,
        1.0
      ],
      "min": [
        0.0,
        0.0
      ],
      "type": "VEC2"
    }
  ],
  "asset": {
    "generator": "Adobe Illustrator",
    "version": "2.0"
  },
  "bufferViews": [
    {
      "buffer": 0,
      "byteLength": 792,
      "target": 34963
    },
    {
      "buffer": 0,
      "byteLength": 852,
      "byteOffset": 792,
      "target": 34962
    },
    {
      "buffer": 0,
      "byteLength": 852,
      "byteOffset": 1644,
      "target": 34962
    },
    {
      "buffer": 0,
      "byteLength": 568,
      "byteOffset": 2496,
      "target": 34962
    }
  ],
  "buffers": [
    {
      "byteLength": 3064,
      "uri": "data:application/octet-stream;base64,"
    }
  ],
  "materials": [
    {
      "doubleSided": true,
      "pbrMetallicRoughness": {
        "baseColorFactor": [
          0.88671875,
          0.0234375,
          0.0742187574505806,
          1.0
        ],
        "metallicFactor": 0.0,
        "roughnessFactor": 0.4000000059604645
      }
    }
  ],
  "meshes": [
    {
      "primitives": [
        {
          "attributes": {
            "NORMAL": 2,
            "POSITION": 1,
            "TEXCOORD_0": 3
          },
          "indices": 0,
          "material": 0,
          "mode": 4
        }
      ]
    }
  ],
  "nodes": [
    {
      "mesh": 0
    }
  ],
  "scenes": [
    {
      "nodes": [
        0
      ]
    }
  ]
}
